Coordinates
version=1
nRows=15
nColumns=34
inDegrees=yes

Units are S.I. units (second, meters, Newtons, ...)
If the header above contains a line with 'inDegrees', this indicates whether rotational values are in degrees (yes) or radians (no).

endheader
time	pelvis_tilt	pelvis_list	pelvis_rotation	pelvis_tx	pelvis_ty	pelvis_tz	hip_flexion_r	hip_adduction_r	hip_rotation_r	knee_angle_r	ankle_angle_r	subtalar_angle_r	mtp_angle_r	hip_flexion_l	hip_adduction_l	hip_rotation_l	knee_angle_l	ankle_angle_l	subtalar_angle_l	mtp_angle_l	lumbar_extension	lumbar_bending	lumbar_rotation	arm_flex_r	arm_add_r	arm_rot_r	elbow_flex_r	pro_sup_r	arm_flex_l	arm_add_l	arm_rot_l	elbow_flex_l	pro_sup_l
      6.87500000	    -43.02341251	      1.75199174	      1.79145552	      1.55013501	      0.72519611	     -0.83115753	     92.48320934	     -3.35749288	      4.45350374	     87.31025944	     38.46128689	    -18.18504802	      0.00000000	     90.77767976	      1.40513608	      2.66024965	     85.40979039	     36.55469349	    -11.24197960	      0.00000000	    -17.78854698	     -0.55446428	     -0.06408397	     -1.05465125	    -42.61797551	     60.59978050	     84.55401106	     91.13762668	      5.70323106	    -42.94117711	     76.13647728	     81.50892088	     99.64808830
      6.88333330	    -43.01978354	      1.79409584	      1.74050625	      1.54920923	      0.72427354	     -0.83175138	     92.52637015	     -3.37523663	      4.47270691	     87.37777610	     38.46894058	    -18.17497515	      0.00000000	     90.82814668	      1.41096135	      2.63437332	     85.48021371	     36.53289018	    -11.24735517	      0.00000000	    -17.81497611	     -0.53775950	     -0.05002186	     -1.01909832	    -42.62250284	     60.59962483	     84.53963406	     91.13556405	      5.72414744	    -42.92842827	     76.15283766	     81.50088125	     99.64759109
      6.89166670	    -42.97835564	      1.80528130	      1.74349266	      1.54874783	      0.72359972	     -0.83127115	     92.63127996	     -3.35015246	      4.51214075	     87.55116038	     38.46456223	    -18.14081941	      0.00000000	     90.91722448	      1.37576208	      2.60034330	     85.62527148	     36.48983226	    -11.26602069	      0.00000000	    -17.86639360	     -0.54179666	     -0.04460868	     -0.98963071	    -42.63314291	     60.60581769	     84.52046601	     91.13343563	      5.75371507	    -42.90832628	     76.16817844	     81.49333817	     99.64700545
      6.90000000	    -42.94157175	      1.85570460	      1.70575245	      1.54662603	      0.72386085	     -0.83188129	     92.82040785	     -3.32348985	      4.57273730	     87.74978812	     38.45397922	    -18.10820032	      0.00000000	     90.95510265	      1.39096334	      2.53942374	     85.77528060	     36.36973838	    -11.29606232	      0.00000000	    -17.87740883	     -0.54305106	     -0.01093445	     -0.95505565	    -42.66830626	     60.63041776	     84.51267675	     91.13032017	      5.76059388	    -42.88708963	     76.22445317	     81.50041115	     99.64742257
      6.90833330	    -42.91947526	      1.87833594	      1.68993261	      1.54794797	      0.72340479	     -0.83211737	     92.93352291	     -3.33446661	      4.56729601	     87.88026975	     38.45711549	    -18.12333541	      0.00000000	     90.88634241	      1.40188037	      2.53715492	     85.80099973	     36.34572499	    -11.30553743	      0.00000000	    -17.84200830	     -0.52644155	     -0.01143182	     -0.94940260	    -42.67657157	     60.63981120	     84.51509959	     91.12936999	      5.77129823	    -42.88154154	     76.23922077	     81.50867292	     99.64754997
      6.91666670	    -42.88795670	      1.87973163	      1.75644531	      1.54825346	      0.72333669	     -0.83224980	     92.93692126	     -3.36878792	      4.62124940	     87.97915147	     38.46722866	    -18.16078975	      0.00000000	     90.90570138	      1.45987481	      2.49209557	     85.95019253	     36.32298656	    -11.31900702	      0.00000000	    -17.75623801	     -0.52504784	     -0.00658678	     -0.94878852	    -42.69040891	     60.65569020	     84.52382950	     91.12818032	      5.77353425	    -42.87029452	     76.26713914	     81.52659248	     99.64833172
      6.92500000	    -42.86424660	      1.88215480	      1.76502586	      1.54690955	      0.72348980	     -0.83182062	     92.96479045	     -3.36945235	      4.62174758	     87.97428981	     38.46970527	    -18.16651870	      0.00000000	     90.89713099	      1.47097476	      2.49043940	     85.95717329	     36.32212350	    -11.32003574	      0.00000000	    -17.74674662	     -0.52156693	     -0.01119138	     -0.95432144	    -42.69162396	     60.66005095	     84.52434158	     91.12814502	      5.77274295	    -42.86966336	     76.27152553	     81.52921695	     99.64852123
      6.93333330	    -42.86745509	      1.89754505	      1.81918549	      1.54761641	      0.72466148	     -0.83182937	     92.91709477	     -3.37651910	      4.67474050	     87.86812589	     38.47275413	    -18.17828679	      0.00000000	     90.96302289	      1.51301617	      2.48415586	     85.97754822	     36.31946458	    -11.32596245	      0.00000000	    -17.72257172	     -0.52322495	     -0.03341470	     -0.98405656	    -42.69232448	     60.68126682	     84.53135822	     91.12803035	      5.76328269	    -42.87153908	     76.29381486	     81.54235370	     99.64951075
      6.94166670	    -42.89427290	      1.92388770	      1.85881087	      1.54919264	      0.72449280	     -0.83239220	     92.79936261	     -3.40637367	      4.71463650	     87.73955629	     38.47101820	    -18.19043521	      0.00000000	     90.99852499	      1.54729771	      2.45291097	     85.95920682	     36.30473809	    -11.34048487	      0.00000000	    -17.65826245	     -0.52023401	     -0.06029224	     -1.03694109	    -42.67543316	     60.71324295	     84.53940165	     91.12777776	      5.73368341	    -42.86898706	     76.32953516	     81.55640291	     99.65101988
      6.95000000	    -42.93977147	      1.91931326	      1.85360806	      1.54886070	      0.72264416	     -0.83241687	     92.76185111	     -3.41486721	      4.72166698	     87.75602633	     38.47242207	    -18.19313093	      0.00000000	     90.97233234	      1.54965080	      2.44870986	     85.96433874	     36.30323208	    -11.34394308	      0.00000000	    -17.64707811	     -0.51820557	     -0.06413987	     -1.04321756	    -42.67218383	     60.71704443	     84.53959110	     91.12769377	      5.73131511	    -42.86909749	     76.33343087	     81.55757310	     99.65118555
      6.95833330	    -43.03516396	      1.98840455	      2.15511482	      1.54784454	      0.72207022	     -0.83323589	     92.86982007	     -3.71434370	      4.91809522	     87.88671115	     38.81886124	    -18.08271497	      0.00000000	     91.15026803	      1.89656758	      2.32870776	     86.21933065	     36.12266268	    -11.88581804	      0.00000000	    -17.19279365	     -0.52043895	     -0.35816560	     -1.30892250	    -42.54175992	     60.94174787	     84.42573172	     91.09212851	      5.69636627	    -42.93915470	     76.78258837	     81.63685321	     99.66690755
      6.96666670	    -43.01683634	      2.01939892	      2.10312344	      1.54737606	      0.72246145	     -0.83381624	     92.88518176	     -3.74100233	      4.90854048	     87.88440078	     38.82278399	    -18.07831632	      0.00000000	     91.20761536	      1.91480520	      2.33780510	     86.31233337	     36.11248051	    -11.90094312	      0.00000000	    -17.21151433	     -0.53557767	     -0.34803406	     -1.30858177	    -42.53728467	     60.94371204	     84.41945588	     91.09039932	      5.69470858	    -42.93407933	     76.79124662	     81.63381559	     99.66678893
      6.97500000	    -43.05145398	      2.02361183	      2.08563724	      1.54732071	      0.72359060	     -0.83334833	     92.99463462	     -3.70522718	      4.90406222	     87.93943838	     38.87331440	    -18.08097216	      0.00000000	     91.27965308	      1.93621581	      2.40947240	     86.24450637	     36.11829105	    -11.93009900	      0.00000000	    -17.30363954	     -0.55070337	     -0.33457912	     -1.32850759	    -42.53113766	     60.95327948	     84.40608643	     91.08736728	      5.68731807	    -42.90893286	     76.80220024	     81.63641465	     99.66624385
      6.98333330	    -43.01710942	      2.03812145	      2.07645355	      1.54687856	      0.72354202	     -0.83350951	     92.99215255	     -3.70278061	      4.90150271	     87.93304072	     38.87954514	    -18.08190331	      0.00000000	     91.31960600	      1.94006343	      2.41648554	     86.21624949	     36.11992650	    -11.93101169	      0.00000000	    -17.30335411	     -0.54864512	     -0.33467113	     -1.33253928	    -42.52980240	     60.95460918	     84.40494140	     91.08712426	      5.68666845	    -42.90717524	     76.80236993	     81.63736111	     99.66618165
      6.99166670	    -42.97936992	      2.04862010	      2.05151117	      1.54611204	      0.72363215	     -0.83388450	     92.98877682	     -3.70054309	      4.90230909	     87.92035960	     38.88858527	    -18.08258850	      0.00000000	     91.36007140	      1.95240704	      2.42475620	     86.17414264	     36.12025110	    -11.92993901	      0.00000000	    -17.29983105	     -0.54410356	     -0.33695775	     -1.34014602	    -42.52742725	     60.95712294	     84.40330365	     91.08677341	      5.68745165	    -42.90494953	     76.80139020	     81.64013776	     99.66605564
